<svg xmlns="http://www.w3.org/2000/svg" width="680" height="570" viewBox="0 0 680 570" role="img" aria-labelledby="title desc">
  <title id="title">생각근육 ThinkFit</title>
  <desc id="desc">생각근육 ThinkFit wordmark with two overlapping conversation bubbles.</desc>
  <defs>
    <linearGradient id="front-stroke" x1="20" y1="42" x2="205" y2="160" gradientUnits="userSpaceOnUse">
      <stop stop-color="#0B6FF4"/>
      <stop offset="0.72" stop-color="#0869E8"/>
      <stop offset="1" stop-color="#082955"/>
    </linearGradient>
    <linearGradient id="fit" x1="425" y1="382" x2="630" y2="506" gradientUnits="userSpaceOnUse">
      <stop stop-color="#0874F9"/>
      <stop offset="1" stop-color="#075ECF"/>
    </linearGradient>
  </defs>
  <g transform="translate(212 18)">
    <path d="M111 91h69c29 0 52 23 52 52v17c0 21-13 39-33 47v25c0 8-9 12-15 7l-35-30h-34c-25 0-46-18-51-42l47-76Z" fill="#FFFFFF" stroke="#082955" stroke-width="13" stroke-linecap="round" stroke-linejoin="round"/>
    <path d="M63 31h88c31 0 56 25 56 56v22c0 31-25 56-56 56h-41l-39 33c-7 6-17 1-17-8v-31c-23-8-39-29-39-54V87c0-31 22-56 48-56Z" fill="#FFFFFF" stroke="url(#front-stroke)" stroke-width="13" stroke-linecap="round" stroke-linejoin="round"/>
    <circle cx="70" cy="99" r="10" fill="#0869E8"/>
    <circle cx="111" cy="99" r="10" fill="#0869E8"/>
    <circle cx="152" cy="99" r="10" fill="#0869E8"/>
  </g>
  <text x="340" y="450" fill="#082955" text-anchor="middle" font-family="Pretendard, SUIT, 'Noto Sans KR', sans-serif" font-size="78" font-weight="800" letter-spacing="-2">생각근육 ThinkFit</text>
</svg>
